<svg xmlns="http://www.w3.org/2000/svg" version="1.1" xmlns:xlink="http://www.w3.org/1999/xlink" xmlns:svgjs="http://svgjs.dev/svgjs" width="1000" height="266" viewBox="0 0 1000 266"><g transform="matrix(1,0,0,1,-0.6060606060606233,-0.08766183222908808)"><svg viewBox="0 0 396 112" data-background-color="#d9bca9" preserveAspectRatio="xMidYMid meet" height="268" width="1000" xmlns="http://www.w3.org/2000/svg" xmlns:xlink="http://www.w3.org/1999/xlink"><g id="tight-bounds" transform="matrix(1,0,0,1,0.2400000000000091,0.034816046842763626)"><svg viewBox="0 0 395.52 94.5454437178852" height="94.5454437178852" width="395.52"><g><svg viewBox="0 0 543.2127992621824 129.850058503938" height="94.5454437178852" width="395.52"><g><rect width="5.760236266043482" height="129.850058503938" x="126.85341046722938" y="0" fill="#FFFFFF" opacity="1" stroke-width="0" stroke="transparent" fill-opacity="1" class="rect-o-0" data-fill-palette-color="primary" rx="1%" id="o-0" data-palette-color="#FFFFFF"></rect></g><g transform="matrix(1,0,0,1,147.69279926218252,10.820838208661499)"><svg viewBox="0 0 395.52 108.20838208661499" height="108.20838208661499" width="395.52"><g><svg viewBox="0 0 395.52 108.20838208661499" height="108.20838208661499" width="395.52"><g><svg viewBox="0 0 395.52 63.8741444658061" height="63.8741444658061" width="395.52"><g transform="matrix(1,0,0,1,0,0)"><svg width="395.52" viewBox="3.8600001335144043 -28.31999969482422 177.77000427246094 28.709999084472656" height="63.8741444658061" data-palette-color="#FFFFFF"><path d="M20.61-3.61Q21.39-3.61 21.9-3.1 22.41-2.59 22.41-1.81L22.41-1.81Q22.41-1.07 21.9-0.54 21.39 0 20.61 0L20.61 0 6.4 0Q5.32 0 4.59-0.73 3.86-1.46 3.86-2.54L3.86-2.54 3.86-26.27Q3.86-27 4.39-27.56 4.93-28.13 5.66-28.13L5.66-28.13Q6.4-28.13 6.96-27.59 7.52-27.05 7.52-26.27L7.52-26.27 7.52-3.61 20.61-3.61ZM29.1-24.32Q32.91-28.32 39.26-28.32 45.6-28.32 49.41-24.32L49.41-24.32Q53.12-20.36 53.27-13.96L53.27-13.96Q53.12-7.62 49.41-3.61L49.41-3.61Q45.6 0.39 39.26 0.39 32.91 0.39 29.1-3.61 25.29-7.62 25.19-13.96L25.19-13.96Q25.29-20.31 29.1-24.32ZM39.26-3.03L39.26-3.03Q44.14-3.03 46.92-6.15L46.92-6.15Q49.66-9.18 49.66-13.96L49.66-13.96Q49.66-18.75 46.92-21.78L46.92-21.78Q44.09-24.95 39.26-24.9L39.26-24.9Q34.37-24.9 31.54-21.78L31.54-21.78Q28.81-18.75 28.85-13.96L28.85-13.96Q28.85-9.18 31.54-6.15L31.54-6.15Q34.37-3.03 39.26-3.03ZM61.52-24.32Q65.33-28.32 71.67-28.32 78.02-28.32 81.83-24.32L81.83-24.32Q85.54-20.36 85.69-13.96L85.69-13.96Q85.54-7.62 81.83-3.61L81.83-3.61Q78.02 0.39 71.67 0.39 65.33 0.39 61.52-3.61 57.71-7.62 57.61-13.96L57.61-13.96Q57.71-20.31 61.52-24.32ZM71.67-3.03L71.67-3.03Q76.56-3.03 79.34-6.15L79.34-6.15Q82.08-9.18 82.08-13.96L82.08-13.96Q82.08-18.75 79.34-21.78L79.34-21.78Q76.51-24.95 71.67-24.9L71.67-24.9Q66.79-24.9 63.96-21.78L63.96-21.78Q61.23-18.75 61.27-13.96L61.27-13.96Q61.27-9.18 63.96-6.15L63.96-6.15Q66.79-3.03 71.67-3.03ZM102.39-16.11L112.98-2.73Q113.42-2.2 113.42-1.49 113.42-0.78 112.93-0.29 112.44 0.2 111.61 0.2 110.78 0.2 110.2-0.49L110.2-0.49 99.89-13.67 95.35-9.08 95.35-1.61Q95.35-0.88 94.82-0.34 94.28 0.2 93.5 0.2L93.5 0.2Q92.77 0.2 92.23-0.34 91.69-0.88 91.69-1.61L91.69-1.61 91.69-26.27Q91.69-27 92.23-27.56 92.77-28.13 93.5-28.13L93.5-28.13Q94.23-28.13 94.79-27.59 95.35-27.05 95.35-26.27L95.35-26.27 95.35-13.57 109.03-27.44Q109.51-28.08 110.32-28.1 111.13-28.13 111.61-27.66 112.1-27.2 112.1-26.44 112.1-25.68 111.61-25.29L111.61-25.29 102.39-16.11ZM150.67-28.13L150.67-28.13Q151.4-28.13 151.97-27.59 152.53-27.05 152.53-26.27L152.53-26.27 152.53-10.45Q152.53-5.22 148.77-2.25L148.77-2.25Q145.54 0.39 141 0.39L141 0.39Q136.41 0.39 133.24-2.25L133.24-2.25Q129.53-5.27 129.53-10.45L129.53-10.45 129.53-26.27Q129.53-27 130.07-27.56 130.6-28.13 131.34-28.13L131.34-28.13Q132.07-28.13 132.63-27.59 133.19-27.05 133.19-26.27L133.19-26.27 133.19-10.35Q133.19-6.79 135.63-4.79L135.63-4.79Q137.88-2.93 141-2.93L141-2.93Q144.18-2.93 146.42-4.79L146.42-4.79Q148.86-6.84 148.86-10.35L148.86-10.35 148.86-26.27Q148.86-27 149.4-27.56 149.94-28.13 150.67-28.13ZM161.8-27.93L170.93-27.93Q176.5-27.93 179.28-25.05L179.28-25.05Q181.58-22.75 181.63-19.04L181.63-19.04Q181.63-15.38 179.28-13.04L179.28-13.04Q176.45-10.16 170.93-10.16L170.93-10.16 163.66-10.16 163.66-1.61Q163.66-0.88 163.12-0.34 162.58 0.2 161.8 0.2L161.8 0.2Q161.07 0.2 160.53-0.34 159.99-0.88 159.99-1.61L159.99-1.61 159.99-26.07Q159.99-26.81 160.53-27.37 161.07-27.93 161.8-27.93L161.8-27.93ZM163.66-13.57L170.59-13.57Q174.69-13.57 176.55-15.33L176.55-15.33Q178.01-16.7 177.96-19.04L177.96-19.04Q177.96-22.75 174.25-23.97L174.25-23.97Q172.79-24.46 170.59-24.51L170.59-24.51 163.66-24.51 163.66-13.57Z" opacity="1" transform="matrix(1,0,0,1,0,0)" fill="#FFFFFF" class="undefined-text-0" data-fill-palette-color="primary" id="text-0"></path></svg></g></svg></g><g transform="matrix(1,0,0,1,0,78.95329699471574)"><svg viewBox="0 0 375.74399999999997 29.25508509189925" height="29.25508509189925" width="375.74399999999997"><g transform="matrix(1,0,0,1,0,0)"><svg width="375.74399999999997" viewBox="4.659999847412109 -34.52000045776367 573.77001953125 44.68000030517578" height="29.25508509189925" data-palette-color="#FFFFFF"><path d="M29.93-34.52L29.93 0 25.12 0 25.12-15.63 9.47-15.63 9.47 0 4.66 0 4.66-34.52 9.47-34.52 9.47-19.97 25.12-19.97 25.12-34.52 29.93-34.52ZM55.34-5.25L56.74-2.03Q55.95-1.56 55.09-1.11 54.22-0.66 53.15-0.32 52.07 0.02 50.74 0.24 49.41 0.46 47.73 0.46L47.73 0.46Q45.16 0.46 43.1-0.39 41.04-1.25 39.58-2.89 38.13-4.54 37.35-6.95 36.57-9.35 36.57-12.45L36.57-12.45Q36.57-15.04 37.2-17.38 37.84-19.73 39.15-21.51 40.45-23.29 42.48-24.35 44.5-25.42 47.29-25.42L47.29-25.42Q49.92-25.42 51.83-24.49 53.73-23.56 54.97-21.98 56.2-20.41 56.78-18.3 57.37-16.19 57.37-13.82L57.37-13.82 57.37-11.79 41.11-11.79Q41.14-10.11 41.49-8.53 41.84-6.96 42.62-5.75 43.41-4.54 44.68-3.82 45.94-3.1 47.82-3.1L47.82-3.1Q50.07-3.1 51.89-3.66 53.71-4.22 55.34-5.25L55.34-5.25ZM47.19-21.85L47.19-21.85Q46.02-21.85 45-21.5 43.99-21.14 43.22-20.4 42.45-19.65 41.95-18.52 41.45-17.38 41.28-15.82L41.28-15.82Q41.26-15.7 41.26-15.48 41.26-15.26 41.26-15.01L41.26-15.01 52.59-15.01Q52.54-16.36 52.27-17.6 52-18.85 51.39-19.79 50.78-20.73 49.75-21.29 48.73-21.85 47.19-21.85ZM64.72-19.36L63.37-22.44Q64.35-23.1 65.49-23.63 66.62-24.17 67.83-24.57 69.04-24.98 70.26-25.2 71.48-25.42 72.63-25.42L72.63-25.42Q74.38-25.42 75.96-24.96 77.53-24.51 78.72-23.55 79.9-22.58 80.59-21.07 81.27-19.56 81.27-17.41L81.27-17.41 81.27-7.35Q81.27-5.69 81.34-4.35 81.42-3 81.54-2.03L81.54-2.03Q81.66-0.88 81.83 0L81.83 0 77.7 0Q77.63-0.42 77.57-1.54 77.51-2.66 77.46-4.05L77.46-4.05Q76.66-2.69 75.7-1.82 74.75-0.95 73.73-0.44 72.7 0.07 71.63 0.27 70.55 0.46 69.5 0.46L69.5 0.46Q67.67 0.46 66.18-0.04 64.69-0.54 63.65-1.49 62.62-2.44 62.06-3.78 61.49-5.13 61.49-6.81L61.49-6.81Q61.49-7.62 61.68-8.52 61.86-9.42 62.28-10.3 62.69-11.18 63.37-11.99 64.06-12.79 65.06-13.43L65.06-13.43Q66.13-14.11 67.43-14.49 68.72-14.87 70.1-15.05 71.48-15.23 72.87-15.27 74.26-15.31 75.56-15.31L75.56-15.31 76.87-15.31 76.87-17.11Q76.87-18.46 76.53-19.37 76.19-20.29 75.58-20.84 74.97-21.39 74.16-21.63 73.36-21.88 72.46-21.88L72.46-21.88Q71.45-21.88 70.38-21.64 69.31-21.41 68.28-21.04 67.26-20.68 66.34-20.24 65.42-19.8 64.72-19.36L64.72-19.36ZM75.39-5.13L75.39-5.13Q75.85-5.66 76.13-6.32 76.41-6.98 76.57-7.81 76.73-8.64 76.79-9.67 76.85-10.69 76.85-11.99L76.85-11.99 76.14-11.99Q74.46-11.99 72.66-11.87 70.87-11.74 69.37-11.23 67.87-10.72 66.9-9.66 65.94-8.59 65.94-6.74L65.94-6.74Q65.94-6.05 66.16-5.41 66.38-4.76 66.85-4.25 67.33-3.74 68.05-3.42 68.77-3.1 69.79-3.1L69.79-3.1Q71.55-3.1 73.04-3.61 74.53-4.13 75.39-5.13ZM97.04 0.46L97.04 0.46Q94.16 0.46 92.61-0.18 91.06-0.83 90.34-2.19 89.62-3.54 89.49-5.65 89.37-7.76 89.37-10.69L89.37-10.69 89.37-30.83 85.66-30.83 85.66-34.47 93.99-34.47 93.99-9.42Q93.99-7.47 94.05-6.27 94.11-5.08 94.46-4.42 94.82-3.76 95.59-3.54 96.35-3.32 97.77-3.32L97.77-3.32 97.04 0.46ZM111.39-3.1L111.39-3.1Q112.07-3.1 112.89-3.2 113.71-3.3 114.27-3.42L114.27-3.42 114.27-0.05Q113.52 0.15 112.43 0.31 111.34 0.46 110.24 0.46L110.24 0.46Q108.75 0.46 107.55 0.16 106.34-0.15 105.5-0.9 104.65-1.66 104.2-2.94 103.75-4.22 103.75-6.15L103.75-6.15 103.75-21.39 99.92-21.39 99.92-25.02 103.87-25.02 104.68-30.98 108.36-31.79 108.36-25.02 114.17-25.02 114.17-21.39 108.36-21.39 108.36-6.69Q108.36-5.98 108.47-5.32 108.58-4.66 108.91-4.17 109.24-3.69 109.83-3.39 110.41-3.1 111.39-3.1ZM124.3 0L119.69 0 119.69-34.47 124.3-34.47 124.3-26.56 124.35-21.85Q125.89-23.54 127.8-24.48 129.7-25.42 131.73-25.42L131.73-25.42Q136.1-25.42 138.18-22.91 140.27-20.41 140.27-15.84L140.27-15.84 140.27 0 135.73 0 135.73-15.6Q135.73-16.7 135.53-17.81 135.34-18.92 134.78-19.81 134.22-20.7 133.23-21.28 132.24-21.85 130.65-21.85L130.65-21.85Q129.55-21.85 128.7-21.61 127.84-21.36 127.21-20.96 126.57-20.56 126.12-20.07 125.67-19.58 125.38-19.12L125.38-19.12Q124.74-18.07 124.52-16.52 124.3-14.97 124.3-13.35L124.3-13.35 124.3 0ZM161.77-19.36L160.43-22.44Q161.41-23.1 162.54-23.63 163.68-24.17 164.89-24.57 166.1-24.98 167.32-25.2 168.54-25.42 169.68-25.42L169.68-25.42Q171.44-25.42 173.02-24.96 174.59-24.51 175.78-23.55 176.96-22.58 177.64-21.07 178.33-19.56 178.33-17.41L178.33-17.41 178.33-7.35Q178.33-5.69 178.4-4.35 178.47-3 178.6-2.03L178.6-2.03Q178.72-0.88 178.89 0L178.89 0 174.76 0Q174.69-0.42 174.63-1.54 174.57-2.66 174.52-4.05L174.52-4.05Q173.71-2.69 172.76-1.82 171.81-0.95 170.78-0.44 169.76 0.07 168.68 0.27 167.61 0.46 166.56 0.46L166.56 0.46Q164.73 0.46 163.24-0.04 161.75-0.54 160.71-1.49 159.67-2.44 159.11-3.78 158.55-5.13 158.55-6.81L158.55-6.81Q158.55-7.62 158.73-8.52 158.92-9.42 159.33-10.3 159.75-11.18 160.43-11.99 161.12-12.79 162.12-13.43L162.12-13.43Q163.19-14.11 164.48-14.49 165.78-14.87 167.16-15.05 168.54-15.23 169.93-15.27 171.32-15.31 172.61-15.31L172.61-15.31 173.93-15.31 173.93-17.11Q173.93-18.46 173.59-19.37 173.25-20.29 172.64-20.84 172.03-21.39 171.22-21.63 170.42-21.88 169.51-21.88L169.51-21.88Q168.51-21.88 167.44-21.64 166.36-21.41 165.34-21.04 164.31-20.68 163.4-20.24 162.48-19.8 161.77-19.36L161.77-19.36ZM172.44-5.13L172.44-5.13Q172.91-5.66 173.19-6.32 173.47-6.98 173.63-7.81 173.79-8.64 173.85-9.67 173.91-10.69 173.91-11.99L173.91-11.99 173.2-11.99Q171.52-11.99 169.72-11.87 167.93-11.74 166.43-11.23 164.92-10.72 163.96-9.66 163-8.59 163-6.74L163-6.74Q163-6.05 163.21-5.41 163.43-4.76 163.91-4.25 164.39-3.74 165.11-3.42 165.83-3.1 166.85-3.1L166.85-3.1Q168.61-3.1 170.1-3.61 171.59-4.13 172.44-5.13ZM207.62 0L203.08 0 203.08-16.11Q203.08-18.87 201.73-20.36 200.37-21.85 197.9-21.85L197.9-21.85Q194.95-21.85 193.28-19.81 191.61-17.77 191.61-13.87L191.61-13.87 191.61 0 186.99 0 186.99-21.36 183.28-21.36 183.28-25 191.26-25 191.51-21.34Q192.24-22.34 193-23.11 193.75-23.88 194.66-24.39 195.56-24.9 196.64-25.17 197.71-25.44 199.03-25.44L199.03-25.44Q200.37-25.44 201.87-25.04 203.37-24.63 204.66-23.62 205.94-22.61 206.78-20.9 207.62-19.19 207.62-16.55L207.62-16.55 207.62 0ZM235.65-34.5L235.65 0 231.69 0Q231.59-0.73 231.52-1.37L231.52-1.37Q231.45-1.93 231.4-2.48 231.35-3.03 231.3-3.34L231.3-3.34Q230.52-2.32 229.67-1.59 228.81-0.85 227.92-0.4 227.03 0.05 226.16 0.26 225.29 0.46 224.49 0.46L224.49 0.46Q221.58 0.46 219.52-0.55 217.46-1.56 216.16-3.33 214.87-5.1 214.27-7.52 213.67-9.94 213.67-12.74L213.67-12.74Q213.67-15.33 214.26-17.63 214.85-19.92 216.13-21.66 217.41-23.39 219.44-24.4 221.46-25.42 224.32-25.42L224.32-25.42Q225.56-25.42 226.59-25.1 227.61-24.78 228.46-24.27 229.3-23.75 229.97-23.1 230.64-22.44 231.15-21.75L231.15-21.75 231.08-25.81 231.03-34.5 235.65-34.5ZM231.08-8.57L231.08-16.55Q231.08-17.38 230.54-18.31 230.01-19.24 229.09-20.03 228.18-20.83 226.99-21.34 225.81-21.85 224.54-21.85L224.54-21.85Q222.58-21.85 221.34-21.04 220.09-20.24 219.39-18.95 218.68-17.65 218.4-15.98 218.12-14.31 218.12-12.6L218.12-12.6Q218.12-10.72 218.45-9.01 218.78-7.3 219.53-5.98 220.29-4.66 221.47-3.88 222.66-3.1 224.39-3.1L224.39-3.1Q226.15-3.1 227.42-3.65 228.69-4.2 229.49-5.02 230.3-5.83 230.69-6.79 231.08-7.74 231.08-8.57L231.08-8.57ZM256.98 0L256.98-34.47 268.09-34.47Q270.82-34.47 272.98-34.02 275.14-33.57 276.64-32.53 278.15-31.49 278.94-29.82 279.73-28.15 279.73-25.73L279.73-25.73Q279.73-24.17 279.24-22.94 278.76-21.7 277.96-20.76 277.17-19.82 276.17-19.15 275.17-18.48 274.12-18.07L274.12-18.07Q275.31-17.7 276.51-17.09 277.71-16.48 278.63-15.52 279.56-14.55 280.15-13.13 280.73-11.72 280.73-9.74L280.73-9.74Q280.73-8.28 280.38-7.06 280.03-5.83 279.48-4.87 278.93-3.91 278.28-3.19 277.63-2.47 277.05-2.03L277.05-2.03 277.07-2.05Q275.51-0.93 273.42-0.46 271.33 0 269.14 0L269.14 0 256.98 0ZM261.79-30.27L261.79-20.04 267.89-20.04Q269.09-20.04 270.32-20.24 271.55-20.43 272.54-21 273.53-21.56 274.15-22.6 274.78-23.63 274.78-25.32L274.78-25.32Q274.78-26.95 274.19-27.94 273.61-28.93 272.63-29.44 271.65-29.96 270.38-30.11 269.11-30.27 267.75-30.27L267.75-30.27 261.79-30.27ZM268.87-15.8L261.79-15.8 261.79-4.15 268.89-4.15Q272.24-4.15 273.98-5.68 275.73-7.2 275.73-10.08L275.73-10.08Q275.73-11.33 275.34-12.37 274.95-13.4 274.11-14.17 273.26-14.94 271.97-15.37 270.68-15.8 268.87-15.8L268.87-15.8ZM304.51-5.25L305.9-2.03Q305.12-1.56 304.25-1.11 303.39-0.66 302.31-0.32 301.24 0.02 299.91 0.24 298.58 0.46 296.89 0.46L296.89 0.46Q294.33 0.46 292.27-0.39 290.2-1.25 288.75-2.89 287.3-4.54 286.52-6.95 285.74-9.35 285.74-12.45L285.74-12.45Q285.74-15.04 286.37-17.38 287.01-19.73 288.31-21.51 289.62-23.29 291.64-24.35 293.67-25.42 296.45-25.42L296.45-25.42Q299.09-25.42 301-24.49 302.9-23.56 304.13-21.98 305.37-20.41 305.95-18.3 306.54-16.19 306.54-13.82L306.54-13.82 306.54-11.79 290.28-11.79Q290.3-10.11 290.66-8.53 291.01-6.96 291.79-5.75 292.57-4.54 293.84-3.82 295.11-3.1 296.99-3.1L296.99-3.1Q299.24-3.1 301.06-3.66 302.88-4.22 304.51-5.25L304.51-5.25ZM296.36-21.85L296.36-21.85Q295.18-21.85 294.17-21.5 293.16-21.14 292.39-20.4 291.62-19.65 291.12-18.52 290.62-17.38 290.45-15.82L290.45-15.82Q290.42-15.7 290.42-15.48 290.42-15.26 290.42-15.01L290.42-15.01 301.75-15.01Q301.7-16.36 301.43-17.6 301.17-18.85 300.56-19.79 299.95-20.73 298.92-21.29 297.89-21.85 296.36-21.85ZM313.88-19.36L312.54-22.44Q313.52-23.1 314.65-23.63 315.79-24.17 317-24.57 318.2-24.98 319.43-25.2 320.65-25.42 321.79-25.42L321.79-25.42Q323.55-25.42 325.13-24.96 326.7-24.51 327.88-23.55 329.07-22.58 329.75-21.07 330.44-19.56 330.44-17.41L330.44-17.41 330.44-7.35Q330.44-5.69 330.51-4.35 330.58-3 330.7-2.03L330.7-2.03Q330.83-0.88 331 0L331 0 326.87 0Q326.8-0.42 326.74-1.54 326.68-2.66 326.63-4.05L326.63-4.05Q325.82-2.69 324.87-1.82 323.92-0.95 322.89-0.44 321.87 0.07 320.79 0.27 319.72 0.46 318.67 0.46L318.67 0.46Q316.84 0.46 315.35-0.04 313.86-0.54 312.82-1.49 311.78-2.44 311.22-3.78 310.66-5.13 310.66-6.81L310.66-6.81Q310.66-7.62 310.84-8.52 311.03-9.42 311.44-10.3 311.86-11.18 312.54-11.99 313.22-12.79 314.23-13.43L314.23-13.43Q315.3-14.11 316.59-14.49 317.89-14.87 319.27-15.05 320.65-15.23 322.04-15.27 323.43-15.31 324.72-15.31L324.72-15.31 326.04-15.31 326.04-17.11Q326.04-18.46 325.7-19.37 325.36-20.29 324.75-20.84 324.14-21.39 323.33-21.63 322.53-21.88 321.62-21.88L321.62-21.88Q320.62-21.88 319.55-21.64 318.47-21.41 317.45-21.04 316.42-20.68 315.51-20.24 314.59-19.8 313.88-19.36L313.88-19.36ZM324.55-5.13L324.55-5.13Q325.02-5.66 325.3-6.32 325.58-6.98 325.74-7.81 325.9-8.64 325.96-9.67 326.02-10.69 326.02-11.99L326.02-11.99 325.31-11.99Q323.62-11.99 321.83-11.87 320.04-11.74 318.53-11.23 317.03-10.72 316.07-9.66 315.1-8.59 315.1-6.74L315.1-6.74Q315.1-6.05 315.32-5.41 315.54-4.76 316.02-4.25 316.5-3.74 317.22-3.42 317.94-3.1 318.96-3.1L318.96-3.1Q320.72-3.1 322.21-3.61 323.7-4.13 324.55-5.13ZM358.63 0L354.8 0Q354.7-0.42 354.6-1.03L354.6-1.03Q354.53-1.54 354.44-2.31 354.36-3.08 354.29-4.1L354.29-4.1Q353.36-1.88 351.39-0.71 349.43 0.46 346.91 0.46L346.91 0.46Q342.3 0.46 340.03-1.97 337.76-4.39 337.76-8.96L337.76-8.96 337.76-25 342.3-25 342.3-8.94Q342.3-7.74 342.53-6.68 342.76-5.62 343.32-4.82 343.89-4.03 344.81-3.56 345.74-3.1 347.16-3.1L347.16-3.1Q349.09-3.1 350.34-3.74 351.6-4.37 352.35-5.48 353.09-6.59 353.38-8.11 353.68-9.62 353.68-11.38L353.68-11.38 353.68-25 358.22-25 358.22-9.18Q358.22-6.88 358.28-5.19 358.34-3.49 358.41-2.32L358.41-2.32Q358.51-0.98 358.63 0L358.63 0ZM374.82-3.1L374.82-3.1Q375.5-3.1 376.32-3.2 377.14-3.3 377.7-3.42L377.7-3.42 377.7-0.05Q376.94 0.15 375.85 0.31 374.77 0.46 373.67 0.46L373.67 0.46Q372.18 0.46 370.97 0.16 369.76-0.15 368.92-0.9 368.08-1.66 367.63-2.94 367.17-4.22 367.17-6.15L367.17-6.15 367.17-21.39 363.34-21.39 363.34-25.02 367.3-25.02 368.1-30.98 371.79-31.79 371.79-25.02 377.6-25.02 377.6-21.39 371.79-21.39 371.79-6.69Q371.79-5.98 371.9-5.32 372.01-4.66 372.34-4.17 372.67-3.69 373.25-3.39 373.84-3.1 374.82-3.1ZM403.92-25L393.22 2.15Q392.78 3.3 392.2 4.57 391.61 5.83 390.8 6.9 390 7.96 388.95 8.65 387.9 9.35 386.53 9.35L386.53 9.35Q386.04 9.35 385.48 9.25 384.92 9.16 384.16 8.94L384.16 8.94 384.16 5.54Q384.73 5.74 385.12 5.81 385.51 5.88 385.78 5.88L385.78 5.88Q386.51 5.88 387.02 5.44 387.53 5 387.92 4.27 388.31 3.54 388.62 2.61 388.92 1.68 389.19 0.73L389.19 0.73 389.44-0.12 379.57-25 384.6-25 388.9-13.18 391.83-4.79 394.78-13.18 398.98-25 403.92-25ZM442.24-12.5L442.24-12.5Q442.24-9.64 441.5-7.26 440.75-4.88 439.3-3.16 437.85-1.44 435.7-0.49 433.55 0.46 430.74 0.46L430.74 0.46Q428.08 0.46 425.98-0.46 423.88-1.39 422.44-3.08 421-4.76 420.23-7.1 419.46-9.45 419.46-12.28L419.46-12.28Q419.46-14.97 420.12-17.35 420.78-19.73 422.18-21.52 423.59-23.32 425.79-24.37 427.98-25.42 431.03-25.42L431.03-25.42Q434.04-25.42 436.16-24.33 438.29-23.24 439.64-21.44 441-19.63 441.62-17.3 442.24-14.97 442.24-12.5ZM424-12.3L424-12.3Q424-10.28 424.39-8.59 424.78-6.91 425.6-5.69 426.42-4.47 427.71-3.78 429.01-3.1 430.84-3.1L430.84-3.1Q432.3-3.1 433.56-3.63 434.82-4.15 435.73-5.29 436.65-6.42 437.16-8.18 437.67-9.94 437.67-12.4L437.67-12.4Q437.67-16.97 435.97-19.41 434.26-21.85 430.99-21.85L430.99-21.85Q429.62-21.85 428.36-21.33 427.1-20.8 426.13-19.64 425.15-18.48 424.58-16.67 424-14.87 424-12.3ZM459.57 0L454.52 0 445.05-25 450-25 454.22-13.18 457.23-4.42 460.21-13.16 464.38-25 469.39-25 459.57 0ZM490.92-5.25L492.31-2.03Q491.53-1.56 490.66-1.11 489.79-0.66 488.72-0.32 487.65 0.02 486.31 0.24 484.98 0.46 483.3 0.46L483.3 0.46Q480.74 0.46 478.67-0.39 476.61-1.25 475.16-2.89 473.7-4.54 472.92-6.95 472.14-9.35 472.14-12.45L472.14-12.45Q472.14-15.04 472.78-17.38 473.41-19.73 474.72-21.51 476.02-23.29 478.05-24.35 480.08-25.42 482.86-25.42L482.86-25.42Q485.5-25.42 487.4-24.49 489.31-23.56 490.54-21.98 491.77-20.41 492.36-18.3 492.94-16.19 492.94-13.82L492.94-13.82 492.94-11.79 476.68-11.79Q476.71-10.11 477.06-8.53 477.42-6.96 478.2-5.75 478.98-4.54 480.25-3.82 481.52-3.1 483.4-3.1L483.4-3.1Q485.64-3.1 487.46-3.66 489.28-4.22 490.92-5.25L490.92-5.25ZM482.76-21.85L482.76-21.85Q481.59-21.85 480.58-21.5 479.56-21.14 478.8-20.4 478.03-19.65 477.53-18.52 477.03-17.38 476.85-15.82L476.85-15.82Q476.83-15.7 476.83-15.48 476.83-15.26 476.83-15.01L476.83-15.01 488.16-15.01Q488.11-16.36 487.84-17.6 487.57-18.85 486.96-19.79 486.35-20.73 485.33-21.29 484.3-21.85 482.76-21.85ZM499.07 0L499.07-18.58Q499.07-18.9 499.06-19.7 499.04-20.51 499.03-21.46 499.02-22.41 498.98-23.45 498.95-24.49 498.92-25.02L498.92-25.02 503.19-25.02 503.41-20.68Q504.22-21.97 505.17-22.88 506.12-23.78 507.09-24.34 508.05-24.9 508.98-25.16 509.91-25.42 510.69-25.42L510.69-25.42Q511.18-25.42 511.75-25.38 512.33-25.34 512.84-25.27L512.84-25.27 512.55-20.78Q511.89-20.9 511.3-20.97 510.71-21.04 510.1-21.04L510.1-21.04Q508.39-21.04 507.17-20.47 505.95-19.9 505.18-18.87 504.42-17.85 504.05-16.43 503.68-15.01 503.68-13.31L503.68-13.31 503.68 0 499.07 0ZM525.53 0.46L525.53 0.46Q522.65 0.46 521.1-0.18 519.55-0.83 518.83-2.19 518.11-3.54 517.99-5.65 517.86-7.76 517.86-10.69L517.86-10.69 517.86-30.83 514.15-30.83 514.15-34.47 522.48-34.47 522.48-9.42Q522.48-7.47 522.54-6.27 522.6-5.08 522.96-4.42 523.31-3.76 524.08-3.54 524.85-3.32 526.26-3.32L526.26-3.32 525.53 0.46ZM532.32-19.36L530.97-22.44Q531.95-23.1 533.08-23.63 534.22-24.17 535.43-24.57 536.64-24.98 537.86-25.2 539.08-25.42 540.23-25.42L540.23-25.42Q541.98-25.42 543.56-24.96 545.13-24.51 546.32-23.55 547.5-22.58 548.18-21.07 548.87-19.56 548.87-17.41L548.87-17.41 548.87-7.35Q548.87-5.69 548.94-4.35 549.01-3 549.14-2.03L549.14-2.03Q549.26-0.88 549.43 0L549.43 0 545.3 0Q545.23-0.42 545.17-1.54 545.11-2.66 545.06-4.05L545.06-4.05Q544.25-2.69 543.3-1.82 542.35-0.95 541.32-0.44 540.3 0.07 539.22 0.27 538.15 0.46 537.1 0.46L537.1 0.46Q535.27 0.46 533.78-0.04 532.29-0.54 531.25-1.49 530.22-2.44 529.65-3.78 529.09-5.13 529.09-6.81L529.09-6.81Q529.09-7.62 529.28-8.52 529.46-9.42 529.87-10.3 530.29-11.18 530.97-11.99 531.66-12.79 532.66-13.43L532.66-13.43Q533.73-14.11 535.03-14.49 536.32-14.87 537.7-15.05 539.08-15.23 540.47-15.27 541.86-15.31 543.16-15.31L543.16-15.31 544.47-15.31 544.47-17.11Q544.47-18.46 544.13-19.37 543.79-20.29 543.18-20.84 542.57-21.39 541.76-21.63 540.96-21.88 540.05-21.88L540.05-21.88Q539.05-21.88 537.98-21.64 536.91-21.41 535.88-21.04 534.85-20.68 533.94-20.24 533.02-19.8 532.32-19.36L532.32-19.36ZM542.98-5.13L542.98-5.13Q543.45-5.66 543.73-6.32 544.01-6.98 544.17-7.81 544.33-8.64 544.39-9.67 544.45-10.69 544.45-11.99L544.45-11.99 543.74-11.99Q542.06-11.99 540.26-11.87 538.47-11.74 536.97-11.23 535.46-10.72 534.5-9.66 533.54-8.59 533.54-6.74L533.54-6.74Q533.54-6.05 533.76-5.41 533.98-4.76 534.45-4.25 534.93-3.74 535.65-3.42 536.37-3.1 537.39-3.1L537.39-3.1Q539.15-3.1 540.64-3.61 542.13-4.13 542.98-5.13ZM561.02 10.16L556.46 10.16 556.46-17.55Q556.46-18.65 556.43-19.91 556.41-21.17 556.39-22.27L556.39-22.27Q556.34-23.54 556.31-25L556.31-25 560.63-25 560.95-21.26Q561.76-22.46 562.71-23.27 563.66-24.07 564.67-24.56 565.69-25.05 566.69-25.24 567.69-25.44 568.62-25.44L568.62-25.44Q570.59-25.44 572.38-24.63 574.16-23.83 575.5-22.22 576.84-20.61 577.64-18.16 578.43-15.72 578.43-12.45L578.43-12.45Q578.43-9.16 577.61-6.74 576.8-4.32 575.38-2.72 573.96-1.12 572.1-0.33 570.23 0.46 568.15 0.46L568.15 0.46Q565.86 0.46 564.06-0.43 562.27-1.32 560.9-2.71L560.9-2.71 561.02 1.86 561.02 10.16ZM567.49-3.08L567.49-3.08Q569.52-3.08 570.79-3.96 572.06-4.83 572.77-6.2 573.48-7.57 573.73-9.27 573.99-10.96 573.99-12.6L573.99-12.6Q573.99-14.53 573.67-16.22 573.35-17.92 572.62-19.17 571.89-20.41 570.69-21.13 569.5-21.85 567.74-21.85L567.74-21.85Q566.4-21.85 565.17-21.34 563.95-20.83 563.04-20.04 562.12-19.26 561.57-18.32 561.02-17.38 561.02-16.5L561.02-16.5 561.02-8.86Q561.02-7.89 561.41-6.86 561.81-5.83 562.61-4.99 563.42-4.15 564.63-3.61 565.83-3.08 567.49-3.08Z" opacity="1" transform="matrix(1,0,0,1,0,0)" fill="#FFFFFF" class="undefined-text-1" data-fill-palette-color="secondary" id="text-1"></path></svg></g></svg></g></svg></g></svg></g><g transform="matrix(1,0,0,1,0,8.846035235580764)"><svg viewBox="0 0 111.77425793831974 112.15798803277646" height="112.15798803277646" width="111.77425793831974"><g><svg xmlns="http://www.w3.org/2000/svg" viewBox="12.859999656677246 12 486.2962951660156 487.9657897949219" x="0" y="0" height="112.15798803277646" width="111.77425793831974" class="icon-icon-0" data-fill-palette-color="accent" id="icon-0"><path d="M307.07 21.57H65.7A52.89 52.89 0 0 0 12.86 74.41V88.94a4 4 0 0 0 4 4h122a163 163 0 0 0-66.7 41.45C42.16 165 24.94 206 24.94 247c0 76 53.29 141.86 127.2 157.8a95.58 95.58 0 0 0 189.45 17.58 2 2 0 0 0 0.05-0.26 95.49 95.49 0 0 0 0.5-32.45l0-0.21A94.82 94.82 0 0 0 318.33 340 160.06 160.06 0 0 0 347.84 247c0-72.19-47.63-133.45-113.11-154H355.92a4 4 0 0 0 4-4V74.41A52.9 52.9 0 0 0 307.07 21.57ZM333.4 386.33H162a86.53 86.53 0 0 1 2.84-10.4 87.63 87.63 0 0 1 82.85-59.09c0.9 0 1.8 0 2.7 0s1.93 0.08 2.89 0.14a87.74 87.74 0 0 1 33.24 8.89c0.8 0.39 1.59 0.8 2.37 1.22h0a87.54 87.54 0 0 1 44.47 59.19ZM160.13 404.42c0-0.37 0-0.7 0-1l0.05-1.74c0.07-2.46 0.26-4.9 0.53-7.33h174a88.88 88.88 0 0 1 0.6 10.09 87.45 87.45 0 0 1-1 13H161.1A88.81 88.81 0 0 1 160.13 404.42Zm132-90l-173-170.73a124.58 124.58 0 0 1 173 170.73ZM112.48 148.29L281.35 315l-1.91-0.71-0.88-0.29c-0.59-0.2-1.19-0.41-1.79-0.6l-1.06-0.32-1.64-0.49-1.14-0.32-1.58-0.41c-0.39-0.11-0.79-0.2-1.19-0.3l-1.55-0.36-1.22-0.26-1.55-0.32-1.24-0.23-1.55-0.26-1.24-0.19-1.57-0.22-1.23-0.16-1.62-0.18-1.2-0.11c-0.56-0.06-1.13-0.1-1.69-0.14l-1.13-0.08-1.88-0.08-0.94 0c-1 0-1.89-0.05-2.84-0.05-1.26 0-2.51 0-3.76 0.08-0.41 0-0.82 0.05-1.23 0.07-0.83 0-1.67 0.08-2.5 0.15l-1.47 0.14c-0.74 0.07-1.48 0.13-2.22 0.22-0.53 0.06-1.05 0.14-1.57 0.21-0.7 0.1-1.4 0.18-2.1 0.29l-1.59 0.28c-0.68 0.12-1.36 0.23-2 0.36l-0.26 0.05c-0.45 0.09-0.9 0.2-1.35 0.3l-2 0.43-1.61 0.41c-0.65 0.16-1.29 0.32-1.93 0.5l-0.35 0.09-1.25 0.38-1.89 0.57c-0.13 0.05-0.27 0.08-0.4 0.12-0.4 0.13-0.79 0.28-1.19 0.42-0.62 0.21-1.24 0.41-1.85 0.64l-1.57 0.59-1.81 0.7-1.55 0.65c-0.59 0.26-1.19 0.51-1.78 0.78L207 318l-1.75 0.84-1.48 0.76-1.72 0.91-1.44 0.81-1.69 1-1.41 0.86c-0.56 0.34-1.11 0.69-1.65 1l-1.38 0.91-1.61 1.1-1.34 1c-0.53 0.39-1.05 0.77-1.57 1.17l-1.3 1-1.53 1.23-1.26 1.05c-0.5 0.42-1 0.85-1.49 1.29L183.13 334c-0.49 0.44-1 0.9-1.45 1.35l-1.17 1.13-1.39 1.41c-0.38 0.39-0.76 0.78-1.13 1.18l-1.35 1.47-1.08 1.21c-0.43 0.5-0.86 1-1.29 1.53s-0.7 0.83-1 1.25-0.84 1.05-1.25 1.58l-1 1.29c-0.4 0.54-0.79 1.09-1.19 1.64s-0.63 0.88-0.93 1.32-0.76 1.13-1.13 1.7-0.6 0.9-0.88 1.35-0.72 1.17-1.07 1.75-0.56 0.92-0.83 1.39-0.67 1.19-1 1.79-0.54 0.95-0.79 1.44-0.62 1.21-0.93 1.83-0.5 1-0.74 1.47-0.57 1.24-0.85 1.86-0.47 1-0.69 1.53-0.52 1.25-0.78 1.88-0.44 1.05-0.64 1.58l-0.05 0.1a124.57 124.57 0 0 1-46-221.7ZM247.71 492a87.73 87.73 0 0 1-85-66.55h170A87.72 87.72 0 0 1 247.71 492Zm92.13-245a152.22 152.22 0 0 1-27.22 87.27c-0.44-0.41-0.88-0.79-1.32-1.19l-0.78-0.69c-0.85-0.75-1.71-1.48-2.59-2.19l-0.38-0.3c-0.76-0.61-1.52-1.2-2.29-1.79l-0.93-0.68q-0.91-0.68-1.83-1.32l-1.06-0.72-1.81-1.21-1.07-0.68-1.76-1.07a3.7 3.7 0 0 0 0.23-0.85 131.84 131.84 0 0 0 21.94-73c0-73.11-59.48-132.6-132.59-132.6S53.8 175.42 53.8 248.53A132.89 132.89 0 0 0 156 377.6c-0.21 0.7-0.41 1.4-0.59 2.1L155 381l-0.48 2c-0.09 0.43-0.19 0.86-0.29 1.3-0.14 0.68-0.28 1.36-0.41 2-0.08 0.41-0.16 0.82-0.23 1.23-0.15 0.84-0.29 1.69-0.41 2.54q-0.1 0.62-0.18 1.23c-0.12 0.88-0.24 1.76-0.33 2.64-0.05 0.45-0.09 0.9-0.13 1.34s-0.09 0.94-0.13 1.4A153.61 153.61 0 0 1 32.94 247c0-38.91 16.39-77.9 45-107 29.42-30 68-46.45 108.47-46.45C271 93.55 339.84 162.38 339.84 247Zm12.08-162H20.86V74.41A44.88 44.88 0 0 1 65.7 29.57H307.07a44.89 44.89 0 0 1 44.85 44.84Z" fill="#FFFFFF" data-fill-palette-color="accent"></path><path d="M491.26 28.13L491 28c-25-13.87-34.82-16-55.49-16h-0.22a98.19 98.19 0 0 0-12.77 1.49c-14.48 3.44-29.7 9.4-37 14.49A15.74 15.74 0 0 0 380 47.1l25.53 59.3v25.75a8.2 8.2 0 0 0 5.87 7.85l-2.69 16.82a197.16 197.16 0 0 0-2.42 36.24l6.93 269.32a23.17 23.17 0 0 0 46.34 0l11.59-257.64c0.94-21 0.93-43.33-5-64.7a8.21 8.21 0 0 0 6.16-7.93V107.3L497.86 48A15.7 15.7 0 0 0 491.26 28.13Zm-26.93 104a0.19 0.19 0 0 1-0.19 0.19h-50.4a0.18 0.18 0 0 1-0.19-0.19V110h50.78Zm-0.88 65h-49l-0.11-4.35a189 189 0 0 1 2.32-34.76l2.84-17.75h38.46C463.4 158.82 464 178.38 463.45 197.2ZM451.58 462.14v0.18a15.17 15.17 0 1 1-30.34 0L414.62 205.2h48.52Zm38.93-417.3L465.89 102H412.38l-25-58.09A7.71 7.71 0 0 1 390 34.56c6.39-4.44 21.14-10.15 34.32-13.28A88.38 88.38 0 0 1 435.57 20c19.3 0 27.91 1.89 51.5 15l0.22 0.13A7.7 7.7 0 0 1 490.51 44.84Z" fill="#FFFFFF" data-fill-palette-color="accent"></path><path d="M186.39 156.47a6 6 0 1 0 6 6A6 6 0 0 0 186.39 156.47Zm0 8a2 2 0 1 1 2-2A2 2 0 0 1 186.39 164.47Z" fill="#FFFFFF" data-fill-palette-color="accent"></path><path d="M232.88 156.47a6 6 0 1 0 6 6A6 6 0 0 0 232.88 156.47Zm0 8a2 2 0 1 1 2-2A2 2 0 0 1 232.88 164.47Z" fill="#FFFFFF" data-fill-palette-color="accent"></path><path d="M232.88 204.65a6 6 0 1 0 6 6A6 6 0 0 0 232.88 204.65Zm0 8a2 2 0 1 1 2-2A2 2 0 0 1 232.88 212.65Z" fill="#FFFFFF" data-fill-palette-color="accent"></path><path d="M274 216.65a6 6 0 1 0-6-6A6 6 0 0 0 274 216.65Zm0-8a2 2 0 1 1-2 2A2 2 0 0 1 274 208.65Z" fill="#FFFFFF" data-fill-palette-color="accent"></path><path d="M274 250a6 6 0 1 0 6 6A6 6 0 0 0 274 250Zm0 8a2 2 0 1 1 2-2A2 2 0 0 1 274 258Z" fill="#FFFFFF" data-fill-palette-color="accent"></path></svg></g></svg></g></svg></g><defs></defs></svg><rect width="395.52" height="94.5454437178852" fill="none" stroke="none" visibility="hidden"></rect></g></svg></g></svg>