<svg xmlns="http://www.w3.org/2000/svg" version="1.1" xmlns:xlink="http://www.w3.org/1999/xlink" xmlns:svgjs="http://svgjs.dev/svgjs" width="300" height="260" viewBox="0 0 300 260"><g transform="matrix(1,0,0,1,-0.6060606060606233,-0.08766183222908808)"><svg viewBox="0 0 396 112" data-background-color="#d9bca9" preserveAspectRatio="xMidYMid meet" height="282" width="1000" xmlns="http://www.w3.org/2000/svg" xmlns:xlink="http://www.w3.org/1999/xlink"><g id="tight-bounds" transform="matrix(1,0,0,1,0.2400000000000091,0.034816046842763626)"><svg viewBox="0 0 543.2127992621824 129.850058503938" height="94.5454437178852" width="395.52"><g transform="matrix(1,0,0,1,147.69279926218252,10.820838208661499)"></g><g transform="matrix(1,0,0,1,0,8.846035235580764)"><svg xmlns="http://www.w3.org/2000/svg" viewBox="12.859999656677246 12 486.2962951660156 487.9657897949219" x="0" y="0" height="112.15798803277646" width="111.77425793831974" class="icon-icon-0" data-fill-palette-color="accent" id="icon-0"><path d="M307.07 21.57H65.7A52.89 52.89 0 0 0 12.86 74.41V88.94a4 4 0 0 0 4 4h122a163 163 0 0 0-66.7 41.45C42.16 165 24.94 206 24.94 247c0 76 53.29 141.86 127.2 157.8a95.58 95.58 0 0 0 189.45 17.58 2 2 0 0 0 0.05-0.26 95.49 95.49 0 0 0 0.5-32.45l0-0.21A94.82 94.82 0 0 0 318.33 340 160.06 160.06 0 0 0 347.84 247c0-72.19-47.63-133.45-113.11-154H355.92a4 4 0 0 0 4-4V74.41A52.9 52.9 0 0 0 307.07 21.57ZM333.4 386.33H162a86.53 86.53 0 0 1 2.84-10.4 87.63 87.63 0 0 1 82.85-59.09c0.9 0 1.8 0 2.7 0s1.93 0.08 2.89 0.14a87.74 87.74 0 0 1 33.24 8.89c0.8 0.39 1.59 0.8 2.37 1.22h0a87.54 87.54 0 0 1 44.47 59.19ZM160.13 404.42c0-0.37 0-0.7 0-1l0.05-1.74c0.07-2.46 0.26-4.9 0.53-7.33h174a88.88 88.88 0 0 1 0.6 10.09 87.45 87.45 0 0 1-1 13H161.1A88.81 88.81 0 0 1 160.13 404.42Zm132-90l-173-170.73a124.58 124.58 0 0 1 173 170.73ZM112.48 148.29L281.35 315l-1.91-0.71-0.88-0.29c-0.59-0.2-1.19-0.41-1.79-0.6l-1.06-0.32-1.64-0.49-1.14-0.32-1.58-0.41c-0.39-0.11-0.79-0.2-1.19-0.3l-1.55-0.36-1.22-0.26-1.55-0.32-1.24-0.23-1.55-0.26-1.24-0.19-1.57-0.22-1.23-0.16-1.62-0.18-1.2-0.11c-0.56-0.06-1.13-0.1-1.69-0.14l-1.13-0.08-1.88-0.08-0.94 0c-1 0-1.89-0.05-2.84-0.05-1.26 0-2.51 0-3.76 0.08-0.41 0-0.82 0.05-1.23 0.07-0.83 0-1.67 0.08-2.5 0.15l-1.47 0.14c-0.74 0.07-1.48 0.13-2.22 0.22-0.53 0.06-1.05 0.14-1.57 0.21-0.7 0.1-1.4 0.18-2.1 0.29l-1.59 0.28c-0.68 0.12-1.36 0.23-2 0.36l-0.26 0.05c-0.45 0.09-0.9 0.2-1.35 0.3l-2 0.43-1.61 0.41c-0.65 0.16-1.29 0.32-1.93 0.5l-0.35 0.09-1.25 0.38-1.89 0.57c-0.13 0.05-0.27 0.08-0.4 0.12-0.4 0.13-0.79 0.28-1.19 0.42-0.62 0.21-1.24 0.41-1.85 0.64l-1.57 0.59-1.81 0.7-1.55 0.65c-0.59 0.26-1.19 0.51-1.78 0.78L207 318l-1.75 0.84-1.48 0.76-1.72 0.91-1.44 0.81-1.69 1-1.41 0.86c-0.56 0.34-1.11 0.69-1.65 1l-1.38 0.91-1.61 1.1-1.34 1c-0.53 0.39-1.05 0.77-1.57 1.17l-1.3 1-1.53 1.23-1.26 1.05c-0.5 0.42-1 0.85-1.49 1.29L183.13 334c-0.49 0.44-1 0.9-1.45 1.35l-1.17 1.13-1.39 1.41c-0.38 0.39-0.76 0.78-1.13 1.18l-1.35 1.47-1.08 1.21c-0.43 0.5-0.86 1-1.29 1.53s-0.7 0.83-1 1.25-0.84 1.05-1.25 1.58l-1 1.29c-0.4 0.54-0.79 1.09-1.19 1.64s-0.63 0.88-0.93 1.32-0.76 1.13-1.13 1.7-0.6 0.9-0.88 1.35-0.72 1.17-1.07 1.75-0.56 0.92-0.83 1.39-0.67 1.19-1 1.79-0.54 0.95-0.79 1.44-0.62 1.21-0.93 1.83-0.5 1-0.74 1.47-0.57 1.24-0.85 1.86-0.47 1-0.69 1.53-0.52 1.25-0.78 1.88-0.44 1.05-0.64 1.58l-0.05 0.1a124.57 124.57 0 0 1-46-221.7ZM247.71 492a87.73 87.73 0 0 1-85-66.55h170A87.72 87.72 0 0 1 247.71 492Zm92.13-245a152.22 152.22 0 0 1-27.22 87.27c-0.44-0.41-0.88-0.79-1.32-1.19l-0.78-0.69c-0.85-0.75-1.71-1.48-2.59-2.19l-0.38-0.3c-0.76-0.61-1.52-1.2-2.29-1.79l-0.93-0.68q-0.91-0.68-1.83-1.32l-1.06-0.72-1.81-1.21-1.07-0.68-1.76-1.07a3.7 3.7 0 0 0 0.23-0.85 131.84 131.84 0 0 0 21.94-73c0-73.11-59.48-132.6-132.59-132.6S53.8 175.42 53.8 248.53A132.89 132.89 0 0 0 156 377.6c-0.21 0.7-0.41 1.4-0.59 2.1L155 381l-0.48 2c-0.09 0.43-0.19 0.86-0.29 1.3-0.14 0.68-0.28 1.36-0.41 2-0.08 0.41-0.16 0.82-0.23 1.23-0.15 0.84-0.29 1.69-0.41 2.54q-0.1 0.62-0.18 1.23c-0.12 0.88-0.24 1.76-0.33 2.64-0.05 0.45-0.09 0.9-0.13 1.34s-0.09 0.94-0.13 1.4A153.61 153.61 0 0 1 32.94 247c0-38.91 16.39-77.9 45-107 29.42-30 68-46.45 108.47-46.45C271 93.55 339.84 162.38 339.84 247Zm12.08-162H20.86V74.41A44.88 44.88 0 0 1 65.7 29.57H307.07a44.89 44.89 0 0 1 44.85 44.84Z" fill="#000000" data-fill-palette-color="accent"></path><path d="M491.26 28.13L491 28c-25-13.87-34.82-16-55.49-16h-0.22a98.19 98.19 0 0 0-12.77 1.49c-14.48 3.44-29.7 9.4-37 14.49A15.74 15.74 0 0 0 380 47.1l25.53 59.3v25.75a8.2 8.2 0 0 0 5.87 7.85l-2.69 16.82a197.16 197.16 0 0 0-2.42 36.24l6.93 269.32a23.17 23.17 0 0 0 46.34 0l11.59-257.64c0.94-21 0.93-43.33-5-64.7a8.21 8.21 0 0 0 6.16-7.93V107.3L497.86 48A15.7 15.7 0 0 0 491.26 28.13Zm-26.93 104a0.19 0.19 0 0 1-0.19 0.19h-50.4a0.18 0.18 0 0 1-0.19-0.19V110h50.78Zm-0.88 65h-49l-0.11-4.35a189 189 0 0 1 2.32-34.76l2.84-17.75h38.46C463.4 158.82 464 178.38 463.45 197.2ZM451.58 462.14v0.18a15.17 15.17 0 1 1-30.34 0L414.62 205.2h48.52Zm38.93-417.3L465.89 102H412.38l-25-58.09A7.71 7.71 0 0 1 390 34.56c6.39-4.44 21.14-10.15 34.32-13.28A88.38 88.38 0 0 1 435.57 20c19.3 0 27.91 1.89 51.5 15l0.22 0.13A7.7 7.7 0 0 1 490.51 44.84Z" fill="#000000" data-fill-palette-color="accent"></path><path d="M186.39 156.47a6 6 0 1 0 6 6A6 6 0 0 0 186.39 156.47Zm0 8a2 2 0 1 1 2-2A2 2 0 0 1 186.39 164.47Z" fill="#000000" data-fill-palette-color="accent"></path><path d="M232.88 156.47a6 6 0 1 0 6 6A6 6 0 0 0 232.88 156.47Zm0 8a2 2 0 1 1 2-2A2 2 0 0 1 232.88 164.47Z" fill="#000000" data-fill-palette-color="accent"></path><path d="M232.88 204.65a6 6 0 1 0 6 6A6 6 0 0 0 232.88 204.65Zm0 8a2 2 0 1 1 2-2A2 2 0 0 1 232.88 212.65Z" fill="#000000" data-fill-palette-color="accent"></path><path d="M274 216.65a6 6 0 1 0-6-6A6 6 0 0 0 274 216.65Zm0-8a2 2 0 1 1-2 2A2 2 0 0 1 274 208.65Z" fill="#000000" data-fill-palette-color="accent"></path><path d="M274 250a6 6 0 1 0 6 6A6 6 0 0 0 274 250Zm0 8a2 2 0 1 1 2-2A2 2 0 0 1 274 258Z" fill="#000000" data-fill-palette-color="accent"></path></svg></g></svg><rect width="395.52" height="94.5454437178852" fill="none" stroke="none" visibility="hidden"></rect></g></svg></g></svg>